<?xml version="1.0" standalone="no"?>
<!DOCTYPE svg PUBLIC "-//W3C//DTD SVG 20010904//EN"
 "http://www.w3.org/TR/2001/REC-SVG-20010904/DTD/svg10.dtd">
<svg version="1.0" xmlns="http://www.w3.org/2000/svg"
 width="880.000000pt" height="880.000000pt" viewBox="0 0 880.000000 880.000000"
 preserveAspectRatio="xMidYMid meet">
<metadata>
Created by potrace 1.14, written by Peter Selinger 2001-2017
</metadata>
<g transform="translate(0.000000,880.000000) scale(0.100000,-0.100000)"
fill="#000000" stroke="none">
<path d="M1505 7324 c-189 -20 -352 -68 -517 -152 -180 -91 -281 -163 -393
-279 -128 -131 -186 -260 -187 -413 0 -217 109 -418 363 -665 226 -219 502
-412 911 -639 187 -103 559 -288 758 -377 182 -81 215 -98 203 -109 -4 -5 -60
-22 -123 -40 -340 -95 -673 -251 -920 -433 -106 -78 -301 -268 -346 -337 -16
-25 -36 -53 -45 -62 -8 -10 -35 -52 -59 -94 -61 -107 -117 -278 -132 -402
l-12 -102 -171 1 c-93 0 -192 4 -220 9 -27 4 -52 6 -54 4 -2 -2 11 -18 30 -35
68 -65 267 -139 371 -139 51 0 63 -10 73 -60 21 -112 90 -269 167 -384 52 -77
99 -132 111 -128 14 4 38 -19 31 -30 -10 -15 195 -210 213 -204 8 3 12 2 9 -3
-3 -5 9 -20 27 -33 38 -29 71 -43 61 -26 -4 7 -3 8 4 4 7 -4 12 -14 12 -23 0
-9 3 -14 6 -10 4 3 14 -3 23 -13 24 -29 133 -91 149 -85 7 2 10 1 7 -5 -7 -11
32 -33 45 -25 6 4 9 1 8 -7 -2 -7 3 -12 10 -11 6 2 12 -1 12 -5 0 -5 44 -30
99 -55 484 -228 1078 -342 1691 -324 600 18 1106 140 1565 376 l150 77 63 -46
c117 -86 301 -167 452 -200 47 -10 106 -27 131 -38 55 -24 160 -52 196 -52 40
0 83 51 83 98 0 41 -17 64 -57 76 -15 5 -23 15 -23 30 0 56 -64 70 -172 36
-101 -32 -161 -26 -299 27 -66 25 -229 128 -236 149 -2 6 29 36 69 66 40 31
105 85 143 122 74 70 65 67 150 50 11 -2 47 -9 80 -14 33 -6 89 -18 125 -26
63 -15 106 -11 94 7 -3 5 0 9 5 9 6 0 11 6 11 13 0 7 10 17 23 22 26 12 26 48
0 78 -20 21 -55 18 -143 -14 -57 -21 -106 -20 -174 4 l-33 12 65 91 64 90 109
-27 c176 -46 337 -62 539 -56 96 3 212 13 258 21 257 47 479 133 677 262 112
73 146 101 259 212 108 107 260 320 249 349 -4 10 -2 14 4 10 6 -4 16 6 22 23
5 17 7 30 3 30 -4 0 1 5 10 10 9 6 20 25 23 43 4 17 11 37 16 42 4 6 10 22 12
35 3 14 10 37 15 51 13 33 26 105 25 142 0 15 4 27 9 27 6 0 8 22 6 49 -1 28
1 47 6 43 5 -3 6 48 2 126 l-7 131 30 58 c17 32 30 72 29 88 0 17 7 66 17 110
44 197 -23 470 -152 626 -20 24 -30 38 -23 32 8 -7 19 -13 24 -13 19 0 -79 91
-135 126 -83 50 -134 65 -220 65 l-77 0 6 228 c5 251 -4 363 -43 511 -23 85
-66 182 -99 225 -22 28 -20 8 3 -29 29 -46 68 -170 86 -272 19 -104 22 -388 6
-534 -6 -52 -11 -101 -11 -107 0 -23 -17 -13 -42 25 -45 66 -166 178 -238 218
-61 34 -72 45 -91 89 -165 381 -367 649 -604 801 l-60 39 0 75 c0 86 -19 123
-85 165 -157 99 -367 -41 -320 -214 41 -154 252 -202 364 -83 l29 31 68 -47
c37 -26 92 -69 123 -96 117 -101 273 -322 363 -516 30 -63 58 -123 63 -132 21
-38 13 -49 -27 -41 -21 4 -76 7 -123 6 -131 -2 -268 -62 -359 -157 l-35 -36
-112 0 c-415 0 -782 -117 -1094 -349 -184 -137 -340 -320 -435 -511 -15 -30
-29 -57 -31 -59 -2 -2 -52 15 -111 37 -59 22 -135 48 -168 57 -33 10 -61 19
-63 20 -2 2 32 70 76 152 82 152 177 343 246 493 21 47 45 99 53 115 29 61
127 303 165 409 158 443 193 809 94 1004 -34 67 -105 143 -165 175 -151 82
-460 74 -743 -20 -136 -45 -216 -91 -298 -174 -180 -181 -202 -365 -125 -1044
25 -221 37 -340 36 -365 0 -8 0 -72 0 -142 0 -109 -2 -128 -16 -128 -8 0 -15
-5 -15 -12 0 -6 -3 -8 -7 -5 -3 4 -15 -1 -26 -10 -11 -10 -17 -13 -14 -6 4 6
3 13 -1 15 -5 1 -39 62 -77 133 -444 843 -944 1470 -1436 1800 -201 136 -457
245 -649 279 -92 16 -271 26 -335 20z"/>
<path d="M7378 6523 c-83 -43 -91 -145 -14 -192 35 -21 136 -28 136 -9 0 6 3
8 6 5 4 -3 16 -2 26 4 17 9 26 5 54 -22 42 -41 44 -32 3 15 -25 29 -28 39 -20
55 25 47 1 118 -48 142 -37 17 -111 19 -143 2z"/>
</g>
</svg>
